<?xml version="1.0" encoding="UTF-8" standalone="no"?><!DOCTYPE svg PUBLIC "-//W3C//DTD SVG 1.1//EN" "http://www.w3.org/Graphics/SVG/1.1/DTD/svg11.dtd"><svg width="100%" height="100%" viewBox="0 0 5092 3567" version="1.1" xmlns="http://www.w3.org/2000/svg" xmlns:xlink="http://www.w3.org/1999/xlink" xml:space="preserve" xmlns:serif="http://www.serif.com/" style="fill-rule:evenodd;clip-rule:evenodd;stroke-linejoin:round;stroke-miterlimit:2;"><g><path id="p0" d="M0,0l3744.71,0c-0.083,1188.88 0.042,2377.79 -0.083,3566.67l-2244.79,-0c1.667,-16.709 1.125,-33.25 1.042,-50c0.25,-390.792 -0.417,-781.834 0.333,-1172.58c123.792,-67.541 247.25,-135.833 370.834,-203.875c124.125,68 248.083,136.334 372.041,204.625c0.25,122.542 0,245.125 0.125,367.667c-0.083,11.875 0.75,24.083 -0.75,35.875c-8.041,5.875 -17.375,10.25 -26.166,14.958c-126.125,69.542 -252.584,139.167 -378.834,208.459c-14.25,7.875 -26.166,18.5 -33.5,33.208c-14.041,26.167 -10.541,59.125 7.959,82.208c17.916,22.625 48.583,33.5 76.75,26.667c13.583,-3.417 26.791,-11.667 39.041,-18.417c133.625,-73.208 266.917,-147.041 400.584,-220.25c20.75,-11.666 41.708,-19.916 55.041,-40.916c14.792,-22.667 12.459,-46 12.542,-71.792c-0.042,-144.458 -0.083,-288.875 0,-433.333c0,-24.542 1.875,-46.75 -11.625,-68.542c-10.333,-17.792 -26.417,-26.375 -43.958,-35.667c-132.375,-73 -265.042,-145.791 -397.417,-218.791c-17.917,-9.5 -36.417,-22.292 -56.208,-27.125c-18.792,-4.542 -37.042,0.083 -53.834,8.833c-143.083,79.125 -287.041,157.833 -430.125,236.917c-14.333,7.916 -28.416,14.291 -38.666,27.625c-11.875,14.875 -17.167,32.791 -16.917,51.708c0.083,420.875 0,841.708 0.042,1262.54l-128.5,-0c0.041,-412.5 -0.042,-825 0.041,-1237.5c-0.25,-17.334 1.625,-37.084 -4.083,-53.5c-6,-18.292 -19.25,-33.209 -36,-42.5c-138.75,-76.667 -277.958,-152.875 -416.708,-229.459c-19.542,-10.416 -40.292,-25.291 -62.875,-26.375c-17.084,-1.208 -32.084,4.709 -46.834,12.667c-66.875,37.583 -134.458,73.875 -201.458,111.25c-51.75,27.125 -101.75,57.875 -154.25,83.458c-0.375,-222.666 -0.042,-445.375 -0.167,-668.041c-0.25,-21.167 2.292,-42.959 -5.958,-63c-12.042,-30.959 -45.917,-51.084 -78.875,-47.042c-26.208,3.292 -50.583,20.667 -60.667,45.333c-8.791,20.375 -6.833,43.084 -6.916,64.709c0.041,419.458 -0,838.875 -0,1258.33c0.208,24.167 -2.584,49.208 9.166,71.417c10.75,19.875 31.792,37.083 54.75,39.416c14.5,0.959 30,1.417 43.334,-5.166c19.333,-9.125 35.625,-26.667 41.541,-47.417c5.375,-16.75 3.417,-36.458 3.625,-54.083c0.084,-139.875 -0.125,-279.75 0.125,-419.625c132.584,-73.375 265.542,-146.125 398.25,-219.334c124.209,68.25 248.459,136.5 372.5,205.042c0,407.125 0.042,814.292 0,1221.42l-1068.21,-0l0,-3566.67Zm3416.12,2745.25c-55.333,28.958 -109.292,60.417 -164.417,89.833c-68.541,38.459 -138.041,75.292 -206.291,114.25c-22,-10.458 -42.792,-23.166 -64.209,-34.75c-89.5,-49.291 -179.166,-98.291 -268.541,-147.875c-13,-7.541 -27.375,-13.5 -39.5,-22.333c-1.375,-10.5 -0.667,-21.333 -0.75,-31.875c0.208,-123.917 -0.125,-247.833 0.208,-371.75c134.708,-74 269.458,-148.167 404.125,-222.333c15.333,-8.167 28.208,-20.042 36.083,-35.667c8.417,-15.5 8.042,-35.917 5.084,-52.75c-8.209,-30.542 -36.167,-53.708 -67.667,-56.458c-17.542,-1.667 -32.875,4.333 -47.958,12.416c-146.625,81.042 -293.709,161.5 -440.334,242.542c-15.166,8.167 -27.458,20.167 -34.5,36c-8.916,18.833 -7.208,40.25 -7.333,60.5c0.083,144.458 0.083,288.875 0.042,433.333c0.125,25.459 -2.375,49.584 12.166,72c12.084,19.375 30.209,27.375 49.375,37.959c139.834,76.5 279.334,153.75 419.125,230.416c14.125,7.834 28.5,13.875 45.042,13.167c14.875,-0.042 28.083,-5.458 40.833,-12.583c146.167,-80.167 292.084,-160.834 438.25,-240.959c17.25,-9.25 31.417,-23.041 38.375,-41.625c7.625,-17.958 5.084,-39.041 5.459,-58.375c-0,-402.791 -0.042,-805.541 -0,-1208.33c-0.375,-21.75 2.541,-41.667 -7.625,-61.708c-14.917,-33.084 -55.75,-51.75 -90.292,-40.084c-27.458,7.834 -48.708,32 -53.125,60.125c-1.917,15.042 -1.042,30.667 -1.125,45.834c0,372.208 -0.042,744.458 0,1116.67c-0.125,24.834 0.417,49.625 -0.5,74.417Z" style="fill:#00b5e0;fill-rule:nonzero;"/><path id="p1" d="M3744.71,0l90.5,0c-0.583,18.042 -0.083,36.125 -0.208,54.167l0,3470.83c0,13.875 -0.292,27.792 0.208,41.667l-90.583,-0c0.125,-1188.88 0,-2377.79 0.083,-3566.67Z" style="fill:#fff;fill-rule:nonzero;"/><path id="p2" d="M3835.21,0l1256.46,0l-0,3566.67l-1256.46,-0c-0.5,-13.875 -0.208,-27.792 -0.208,-41.667l-0,-3470.83c0.125,-18.042 -0.375,-36.125 0.208,-54.167Zm520.084,2944.25c-61.417,-112.167 -121.959,-224.833 -183.25,-337c-5.667,-10.75 -13,-21.375 -16.792,-32.917c-0.5,-4.833 2.375,-9.916 4.333,-14.25c59.375,-107.708 117.334,-216.541 176.5,-324.416c6.25,-11.334 11.417,-23.834 19.167,-34.25c5,-1.334 10.167,-2 15.542,-2c169.083,0.166 339.166,0.041 508.458,0.083c21.875,0.625 39.167,-9.875 49,-29.292c11,-24.333 13.833,-54.708 2.25,-79.375c-10.042,-21.333 -30.417,-36.958 -53.417,-41.666c-15.666,-2.375 -32.125,-1.25 -47.916,-1.375c-163.875,-0.042 -327.792,0.041 -491.667,-0.042c-17.208,0.208 -36.125,-1.667 -52.208,4.833c-17.25,6.334 -30.625,19 -39.959,34.584c-80.833,139.875 -161.958,279.625 -242.791,419.541c-11.75,20.959 -26.292,38.875 -26.209,64.125c-1.083,25.959 12.917,44.125 24.417,65.875c72.25,133.25 144.75,266.834 217.208,399.959c8.667,15.916 15.667,33.25 31.292,43.625c19.542,14.166 44.083,16.083 67.417,16.916c177.541,0.084 355.875,-0.125 533.333,0.084c15.792,-0.209 34.958,1.958 48.875,-6.667c20.833,-12.75 36.167,-36.042 37.583,-60.667c0.875,-22.208 0.834,-43.416 -12.083,-62.5c-11.042,-16.916 -29.833,-23.375 -49.333,-23.166c-173.167,0.041 -346.584,0.125 -519.75,-0.042Z" style="fill:#939598;fill-rule:nonzero;"/><path id="p3" d="M212.5,1406.62c32.958,-4.042 66.833,16.083 78.875,47.042c8.25,20.041 5.708,41.833 5.958,63c0.125,222.666 -0.208,445.375 0.167,668.041c52.5,-25.583 102.5,-56.333 154.25,-83.458c67,-37.375 134.583,-73.667 201.458,-111.25c14.75,-7.958 29.75,-13.875 46.834,-12.667c22.583,1.084 43.333,15.959 62.875,26.375c138.75,76.584 277.958,152.792 416.708,229.459c16.75,9.291 30,24.208 36,42.5c5.708,16.416 3.833,36.166 4.083,53.5c-0.083,412.5 0,825 -0.041,1237.5l-151.459,-0c0.042,-407.125 0,-814.292 0,-1221.42c-124.041,-68.542 -248.291,-136.792 -372.5,-205.042c-132.708,73.209 -265.666,145.959 -398.25,219.334c-0.25,139.875 -0.041,279.75 -0.125,419.625c-0.208,17.625 1.75,37.333 -3.625,54.083c-5.916,20.75 -22.208,38.292 -41.541,47.417c-13.334,6.583 -28.834,6.125 -43.334,5.166c-22.958,-2.333 -44,-19.541 -54.75,-39.416c-11.75,-22.209 -8.958,-47.25 -9.166,-71.417c-0,-419.458 0.041,-838.875 -0,-1258.33c0.083,-21.625 -1.875,-44.334 6.916,-64.709c10.084,-24.666 34.459,-42.041 60.667,-45.333Z" style="fill:#fff;fill-rule:nonzero;"/><path id="p4" d="M3470.88,1448.21c34.542,-11.666 75.375,7 90.292,40.084c10.166,20.041 7.25,39.958 7.625,61.708c-0.042,402.792 -0,805.542 -0,1208.33c-0.375,19.334 2.166,40.417 -5.459,58.375c-6.958,18.584 -21.125,32.375 -38.375,41.625c-146.166,80.125 -292.083,160.792 -438.25,240.959c-12.75,7.125 -25.958,12.541 -40.833,12.583c-16.542,0.708 -30.917,-5.333 -45.042,-13.167c-139.791,-76.666 -279.291,-153.916 -419.125,-230.416c-19.166,-10.584 -37.291,-18.584 -49.375,-37.959c-14.541,-22.416 -12.041,-46.541 -12.166,-72c0.041,-144.458 0.041,-288.875 -0.042,-433.333c0.125,-20.25 -1.583,-41.667 7.333,-60.5c7.042,-15.833 19.334,-27.833 34.5,-36c146.625,-81.042 293.709,-161.5 440.334,-242.542c15.083,-8.083 30.416,-14.083 47.958,-12.416c31.5,2.75 59.458,25.916 67.667,56.458c2.958,16.833 3.333,37.25 -5.084,52.75c-7.875,15.625 -20.75,27.5 -36.083,35.667c-134.667,74.166 -269.417,148.333 -404.125,222.333c-0.333,123.917 0,247.833 -0.208,371.75c0.083,10.542 -0.625,21.375 0.75,31.875c12.125,8.833 26.5,14.792 39.5,22.333c89.375,49.584 179.041,98.584 268.541,147.875c21.417,11.584 42.209,24.292 64.209,34.75c68.25,-38.958 137.75,-75.791 206.291,-114.25c55.125,-29.416 109.084,-60.875 164.417,-89.833c0.917,-24.792 0.375,-49.583 0.5,-74.417c-0.042,-372.208 0,-744.458 0,-1116.67c0.083,-15.167 -0.792,-30.792 1.125,-45.834c4.417,-28.125 25.667,-52.291 53.125,-60.125Z" style="fill:#fff;fill-rule:nonzero;"/><path id="p5" d="M1887.67,1979.04c19.791,4.833 38.291,17.625 56.208,27.125c132.375,73 265.042,145.791 397.417,218.791c17.541,9.292 33.625,17.875 43.958,35.667c13.5,21.792 11.625,44 11.625,68.542c-0.083,144.458 -0.042,288.875 -0,433.333c-0.083,25.792 2.25,49.125 -12.542,71.792c-13.333,21 -34.291,29.25 -55.041,40.916c-133.667,73.209 -266.959,147.042 -400.584,220.25c-12.25,6.75 -25.458,15 -39.041,18.417c-28.167,6.833 -58.834,-4.042 -76.75,-26.667c-18.5,-23.083 -22,-56.041 -7.959,-82.208c7.334,-14.708 19.25,-25.333 33.5,-33.208c126.25,-69.292 252.709,-138.917 378.834,-208.459c8.791,-4.708 18.125,-9.083 26.166,-14.958c1.5,-11.792 0.667,-24 0.75,-35.875c-0.125,-122.542 0.125,-245.125 -0.125,-367.667c-123.958,-68.291 -247.916,-136.625 -372.041,-204.625c-123.584,68.042 -247.042,136.334 -370.834,203.875c-0.75,390.75 -0.083,781.792 -0.333,1172.58c0.083,16.75 0.625,33.291 -1.042,50l-151.666,-0c-0.042,-420.834 0.041,-841.667 -0.042,-1262.54c-0.25,-18.917 5.042,-36.833 16.917,-51.708c10.25,-13.334 24.333,-19.709 38.666,-27.625c143.084,-79.084 287.042,-157.792 430.125,-236.917c16.792,-8.75 35.042,-13.375 53.834,-8.833Z" style="fill:#fff;fill-rule:nonzero;"/><path id="p6" d="M4337.5,2047.75c163.875,0.083 327.792,0 491.667,0.042c15.791,0.125 32.25,-1 47.916,1.375c23,4.708 43.375,20.333 53.417,41.666c11.583,24.667 8.75,55.042 -2.25,79.375c-9.833,19.417 -27.125,29.917 -49,29.292c-169.292,-0.042 -339.375,0.083 -508.458,-0.083c-5.375,-0 -10.542,0.666 -15.542,2c-7.75,10.416 -12.917,22.916 -19.167,34.25c-59.166,107.875 -117.125,216.708 -176.5,324.416c-1.958,4.334 -4.833,9.417 -4.333,14.25c3.792,11.542 11.125,22.167 16.792,32.917c61.291,112.167 121.833,224.833 183.25,337c173.166,0.167 346.583,0.083 519.75,0.042c19.5,-0.209 38.291,6.25 49.333,23.166c12.917,19.084 12.958,40.292 12.083,62.5c-1.416,24.625 -16.75,47.917 -37.583,60.667c-13.917,8.625 -33.083,6.458 -48.875,6.667c-177.458,-0.209 -355.792,-0 -533.333,-0.084c-23.334,-0.833 -47.875,-2.75 -67.417,-16.916c-15.625,-10.375 -22.625,-27.709 -31.292,-43.625c-72.458,-133.125 -144.958,-266.709 -217.208,-399.959c-11.5,-21.75 -25.5,-39.916 -24.417,-65.875c-0.083,-25.25 14.459,-43.166 26.209,-64.125c80.833,-139.916 161.958,-279.666 242.791,-419.541c9.334,-15.584 22.709,-28.25 39.959,-34.584c16.083,-6.5 35,-4.625 52.208,-4.833Z" style="fill:#fff;fill-rule:nonzero;"/></g></svg>