<?xml version="1.0" standalone="no"?>
<!DOCTYPE svg PUBLIC "-//W3C//DTD SVG 20010904//EN"
 "http://www.w3.org/TR/2001/REC-SVG-20010904/DTD/svg10.dtd">
<svg version="1.0" xmlns="http://www.w3.org/2000/svg"
 width="5092.000000pt" height="5092.000000pt" viewBox="0 0 5092.000000 5092.000000"
 preserveAspectRatio="xMidYMid meet">
<metadata>
Created by potrace 1.14, written by Peter Selinger 2001-2017
</metadata>
<g transform="translate(0.000000,5092.000000) scale(0.100000,-0.100000)"
fill="#000000" stroke="none">
<path d="M0 25455 l0 -17835 5340 0 5340 0 0 6108 0 6108 -27 16 c-37 21
-1024 565 -2498 1376 -1057 581 -1193 653 -1215 645 -22 -9 -2431 -1333 -3572
-1964 l-388 -214 -3 -2305 -3 -2305 -21 -80 c-12 -44 -32 -102 -44 -130 -78
-179 -262 -352 -442 -415 -138 -49 -394 -46 -524 6 -260 103 -443 339 -483
619 -8 58 -10 1886 -8 6785 l3 6705 22 80 c93 329 364 553 693 572 167 10 315
-32 467 -134 163 -107 268 -262 321 -472 15 -61 16 -355 19 -3618 2 -1954 6
-3553 10 -3553 14 0 494 258 858 460 215 120 476 264 580 320 105 57 289 158
410 225 121 67 387 213 590 325 204 112 537 295 740 408 436 242 523 285 635
312 197 47 372 10 625 -131 61 -34 846 -466 1745 -961 899 -496 1856 -1022
2125 -1170 270 -149 518 -288 553 -310 131 -85 240 -217 295 -358 61 -155 57
313 57 -6602 l0 -6348 640 0 640 0 2 6398 3 6397 23 75 c49 159 139 298 249
384 76 60 -6 15 2443 1361 498 274 1191 655 1540 848 349 193 667 363 705 378
145 56 281 71 409 44 120 -25 223 -71 461 -205 122 -69 2941 -1621 3710 -2043
613 -336 616 -338 720 -442 102 -102 158 -197 198 -340 l22 -80 3 -2520 c3
-2582 3 -2602 -35 -2735 -50 -177 -182 -341 -358 -448 -27 -16 -351 -195 -720
-397 -368 -202 -935 -514 -1260 -693 -2074 -1142 -2508 -1379 -2577 -1409
-232 -101 -490 -79 -709 62 -156 100 -267 254 -321 442 -32 112 -32 288 1 393
59 191 160 329 321 437 25 17 585 327 1245 690 660 363 1396 768 1635 900 239
132 581 320 760 418 491 269 478 261 485 298 3 18 4 927 3 2021 l-3 1989 -140
77 c-1664 918 -3549 1953 -3566 1957 -9 3 -257 -128 -550 -290 -667 -368
-2301 -1266 -2796 -1538 l-373 -204 0 -6066 c0 -3336 -3 -6087 -6 -6113 l-7
-46 11222 0 11221 0 0 17835 0 17835 -18720 0 -18720 0 0 -17835z m35106 3365
c304 -77 530 -326 574 -635 6 -46 10 -2260 9 -6455 0 -6947 4 -6455 -56 -6611
-56 -143 -166 -276 -298 -361 -107 -69 -4510 -2488 -4595 -2525 -212 -92 -432
-82 -651 28 -84 42 -377 203 -1924 1054 -577 318 -1389 764 -1803 991 -414
227 -784 434 -823 460 -182 123 -296 309 -328 538 -8 54 -11 833 -11 2559 0
2652 -1 2581 48 2720 48 133 150 271 267 357 50 36 353 205 2180 1210 523 288
1261 694 1640 903 730 403 831 455 935 483 88 24 262 25 350 1 261 -70 482
-281 556 -532 23 -77 26 -323 5 -405 -43 -171 -165 -335 -330 -444 -52 -34
-3435 -1900 -3993 -2202 l-127 -69 -1 -2018 0 -2017 68 -44 c37 -24 99 -60
139 -80 40 -19 283 -152 540 -294 257 -143 900 -497 1428 -787 528 -290 1059
-583 1180 -650 121 -68 254 -139 295 -160 l75 -37 180 103 c99 56 425 237 725
402 300 164 673 370 830 457 157 87 386 213 510 280 124 68 414 227 645 355
231 128 508 280 615 338 l195 104 5 6174 c4 4533 9 6186 17 6219 76 304 279
514 568 590 98 26 258 26 361 0z"/>
<path d="M38350 25455 l0 -17835 6283 2 6282 3 3 17833 2 17832 -6285 0 -6285
0 0 -17835z m10433 -2659 c154 -36 278 -107 388 -222 153 -161 219 -352 206
-597 -17 -338 -164 -580 -400 -661 l-62 -21 -2674 -5 -2673 -5 -27 -32 c-15
-18 -49 -75 -76 -125 -26 -51 -173 -322 -325 -603 -153 -280 -482 -888 -733
-1350 -250 -462 -539 -993 -641 -1180 -103 -187 -193 -361 -201 -388 -12 -41
-12 -53 0 -88 17 -48 12 -38 292 -549 116 -212 467 -857 780 -1435 314 -577
648 -1193 743 -1367 l173 -318 2671 -2 2671 -3 78 -28 c194 -68 308 -199 369
-422 30 -111 33 -435 5 -534 -55 -195 -195 -382 -358 -478 -116 -69 135 -64
-3067 -63 -1810 0 -2922 4 -2970 10 -265 34 -434 107 -559 244 -72 78 -38 19
-851 1516 -368 679 -883 1627 -1143 2105 -261 479 -501 925 -535 992 -80 159
-99 234 -99 388 1 185 28 258 215 575 53 91 630 1085 1280 2210 651 1125 1199
2070 1218 2100 51 78 186 208 262 253 91 53 206 87 320 95 52 4 1347 6 2877 5
2402 -2 2791 -5 2846 -17z"/>
</g>
</svg>
